<svg width="1440" height="528" viewBox="0 0 1440 528" fill="none" xmlns="http://www.w3.org/2000/svg">
<path d="M274 74.2219C162.009 74.2219 -3 0 -3 0V480.5H1446.5L1547.5 36C1547.5 36 1478 92.7781 1376 83.5C1274 74.2219 1245 -1.76341e-10 1104 0C963 1.76341e-10 939.991 74.2219 828 74.2219C716.009 74.2219 662.991 0 551 0C439.009 0 385.991 74.2219 274 74.2219Z" fill="#E76F51"/>
<g opacity="0.15">
<path d="M58.9835 109.916C81.996 149.774 79.6501 194.207 53.7418 209.166C27.8335 224.124 -11.8207 203.945 -34.8332 164.082C-57.8457 124.22 -55.4999 79.7906 -29.5915 64.8323C-3.68319 49.8739 35.9751 70.0573 58.9835 109.916Z" stroke="white" stroke-width="16.6667" stroke-linecap="round" stroke-linejoin="round"/>
<path d="M12.0754 109.916C-10.9371 149.774 -8.59126 194.207 17.3171 209.166C43.2254 224.124 82.8837 203.941 105.896 164.082C128.909 124.224 126.563 79.7906 100.65 64.8323C74.7504 49.8739 35.0879 70.0573 12.0754 109.916Z" stroke="white" stroke-width="16.6667" stroke-linecap="round" stroke-linejoin="round"/>
<path d="M34.9711 80.0989C43.9086 88.0489 52.1794 98.1197 58.9877 109.916C81.9961 149.774 79.6502 194.207 53.7419 209.166C48.3336 212.291 42.3252 213.882 35.9919 214.082" stroke="white" stroke-width="16.6667" stroke-linecap="round" stroke-linejoin="round"/>
</g>
<g opacity="0.15">
<path d="M1432.98 400.916C1456 440.774 1453.65 485.207 1427.74 500.166C1401.83 515.124 1362.18 494.945 1339.17 455.082C1316.15 415.22 1318.5 370.791 1344.41 355.832C1370.32 340.874 1409.98 361.057 1432.98 400.916Z" stroke="white" stroke-width="16.6667" stroke-linecap="round" stroke-linejoin="round"/>
<path d="M1386.08 400.916C1363.06 440.774 1365.41 485.207 1391.32 500.166C1417.23 515.124 1456.88 494.941 1479.9 455.082C1502.91 415.224 1500.56 370.791 1474.65 355.832C1448.75 340.874 1409.09 361.057 1386.08 400.916Z" stroke="white" stroke-width="16.6667" stroke-linecap="round" stroke-linejoin="round"/>
<path d="M1408.97 371.099C1417.91 379.049 1426.18 389.12 1432.99 400.916C1456 440.774 1453.65 485.207 1427.74 500.166C1422.33 503.291 1416.33 504.882 1409.99 505.082" stroke="white" stroke-width="16.6667" stroke-linecap="round" stroke-linejoin="round"/>
</g>
<g opacity="0.15">
<path d="M183.383 359.833C159 371.383 159 404.75 159 404.75M159 404.75C159 404.75 159 371.383 134.617 359.833M159 404.75V475.333" stroke="white" stroke-width="12" stroke-linecap="round" stroke-linejoin="round"/>
<path d="M210.333 379.083C187.875 379.083 168.625 404.108 159 419.508C149.375 404.108 130.125 379.083 107.667 379.083C104.263 379.083 100.999 380.435 98.5922 382.842C96.1854 385.249 94.8334 388.513 94.8334 391.917C94.8334 406.675 98.6834 420.15 104.458 427.85C107.667 433.625 113.442 436.833 120.5 436.833H133.333C127.558 439.4 119.858 442.608 116.65 446.458C106.383 456.725 110.875 468.275 121.142 477.9C131.408 488.167 142.958 492.658 152.583 482.392C154.508 480.467 159 475.333 159 475.333C159 475.333 162.85 480.467 165.417 482.392C175.683 492.658 187.233 488.167 196.858 477.9C207.125 467.633 211.617 456.083 201.35 446.458C198.142 443.25 190.442 439.4 184.667 436.833H197.5C204.558 436.833 210.333 433.625 213.542 427.85C219.317 420.15 223.167 406.675 223.167 391.917C223.167 388.513 221.815 385.249 219.408 382.842C217.001 380.435 213.737 379.083 210.333 379.083Z" stroke="white" stroke-width="12" stroke-linecap="round" stroke-linejoin="round"/>
</g>
<g opacity="0.21" clip-path="url(#clip0_290_161)">
<path d="M1226.1 77.8493C1221.41 80.3727 1217.16 83.6378 1213.51 87.5183C1197.64 104.299 1195.99 128.513 1209.84 141.608M1209.84 141.608C1223.68 154.702 1247.77 151.713 1263.64 134.933C1267.31 131.072 1270.33 126.643 1272.59 121.818M1209.84 141.608C1217.43 148.791 1208.43 164.018 1208.43 164.018M1209.84 141.608C1202.24 134.424 1187.54 144.262 1187.54 144.262M1287.53 114.024C1282.17 122.137 1272.32 121.565 1272.32 121.565C1272.32 121.565 1267.85 112.88 1273.22 104.762C1278.58 96.6489 1288.42 97.221 1288.42 97.221C1288.42 97.221 1292.9 105.907 1287.53 114.024Z" stroke="white" stroke-width="11.5" stroke-linecap="round" stroke-linejoin="round"/>
<path d="M1241.22 100.06L1249.35 99.8336L1225.64 124.898M1270.98 153.06C1260.63 153.287 1255.38 144.318 1255.38 144.318C1255.38 144.318 1260.48 135.122 1270.85 134.89C1281.2 134.659 1286.45 143.632 1286.45 143.632C1286.45 143.632 1281.34 152.829 1270.98 153.06ZM1230.53 167.714C1226.53 159.385 1231.93 151.714 1231.93 151.714C1231.93 151.714 1241.33 152.384 1245.32 160.717C1249.31 169.046 1243.91 176.713 1243.91 176.713C1243.91 176.713 1234.52 176.047 1230.53 167.714ZM1182.62 122.406C1191.16 125.931 1198.52 120.105 1198.52 120.105C1198.52 120.105 1197.32 110.762 1188.78 107.242C1180.24 103.717 1172.89 109.543 1172.89 109.543C1172.89 109.543 1174.08 118.885 1182.62 122.406ZM1195 81.1959C1195.35 91.5459 1204.6 96.2875 1204.6 96.2875C1204.6 96.2875 1213.49 90.679 1213.15 80.3166C1212.8 69.9707 1203.55 65.225 1203.55 65.225C1203.55 65.225 1194.66 70.8335 1195 81.1959ZM1233.06 62.5005C1225.25 68.3063 1226.37 78.1021 1226.37 78.1021C1226.37 78.1021 1235.29 82.0839 1243.1 76.274C1250.9 70.4682 1249.78 60.6724 1249.78 60.6724C1249.78 60.6724 1240.86 56.6905 1233.06 62.5005Z" stroke="white" stroke-width="11.5" stroke-linecap="round" stroke-linejoin="round"/>
</g>
<defs>
<clipPath id="clip0_290_161">
<rect width="138" height="138" fill="white" transform="translate(1230.83 19) rotate(43.406)"/>
</clipPath>
</defs>
</svg>
