<svg width="38" height="38" viewBox="0 0 38 38" fill="none" xmlns="http://www.w3.org/2000/svg">
<path d="M34.8334 10.6875H30.4174C29.4659 10.6875 28.9893 10.6875 28.5412 10.5514C28.0931 10.4152 27.6957 10.1524 26.904 9.62354C25.7165 8.83187 24.3612 7.92937 23.6883 7.72354C23.0154 7.52087 22.3013 7.52087 20.8731 7.52087C18.9319 7.52087 17.6811 7.52087 16.8071 7.88187C15.9363 8.24446 15.2491 8.93004 13.8748 10.3044L12.6667 11.5109C12.3579 11.8212 12.2028 11.9764 12.1078 12.1284C11.9348 12.4048 11.8514 12.7279 11.869 13.0535C11.8865 13.3792 12.0042 13.6914 12.2059 13.9476C12.3168 14.0885 12.4878 14.2263 12.8282 14.5002C14.0885 15.5135 15.9046 15.4122 17.0462 14.2643L19 12.2994H20.5834L30.0834 21.8564C30.5025 22.2802 30.7376 22.8523 30.7376 23.4484C30.7376 24.0445 30.5025 24.6166 30.0834 25.0405C29.8759 25.2492 29.6292 25.4148 29.3574 25.5279C29.0857 25.6409 28.7943 25.6991 28.5 25.6991C28.2057 25.6991 27.9143 25.6409 27.6426 25.5279C27.3709 25.4148 27.1242 25.2492 26.9167 25.0405L26.125 24.2456M26.125 24.2456L21.375 19.4671M26.125 24.2456C26.5442 24.6695 26.7793 25.2416 26.7793 25.8377C26.7793 26.4338 26.5442 27.0058 26.125 27.4297C25.9175 27.6384 25.6708 27.8041 25.3991 27.9171C25.1274 28.0301 24.836 28.0883 24.5417 28.0883C24.2474 28.0883 23.956 28.0301 23.6843 27.9171C23.4125 27.8041 23.1658 27.6384 22.9584 27.4297L21.375 25.8369M21.375 25.8369C21.7947 26.2608 22.03 26.8332 22.03 27.4297C22.03 28.0262 21.7947 28.5986 21.375 29.0225C21.1675 29.2313 20.9208 29.3969 20.6491 29.5099C20.3774 29.623 20.086 29.6812 19.7917 29.6812C19.4974 29.6812 19.206 29.623 18.9343 29.5099C18.6625 29.3969 18.4158 29.2313 18.2084 29.0225L15.8334 26.6333M21.375 25.8369L18.2084 22.6702M15.8334 26.6333L15.0417 25.8369M15.8334 26.6333C16.253 27.0572 16.4884 27.6296 16.4884 28.2261C16.4884 28.8226 16.253 29.395 15.8334 29.819C15.6259 30.0277 15.3792 30.1933 15.1074 30.3064C14.8357 30.4194 14.5443 30.4776 14.25 30.4776C13.9557 30.4776 13.6643 30.4194 13.3926 30.3064C13.1209 30.1933 12.8742 30.0277 12.6667 29.819L8.19535 25.2558C7.27702 24.3185 6.81785 23.8482 6.22885 23.6012C5.64144 23.3542 4.98435 23.3542 3.67177 23.3542H3.16669" stroke="#E76F51" stroke-width="2.375" stroke-linecap="round" stroke-linejoin="round"/>
<path d="M34.8334 23.3542H30.875M13.4584 10.6875H3.16669" stroke="#E76F51" stroke-width="2.375" stroke-linecap="round"/>
</svg>
