<svg width="314" height="156" viewBox="0 0 314 156" fill="none" xmlns="http://www.w3.org/2000/svg">
<path d="M11.9307 115.727L10.7387 116.665C10.3984 116.377 10.038 116.173 9.65747 116.052C9.28017 115.929 8.89721 115.878 8.50857 115.898C8.12062 115.913 7.74074 115.994 7.36892 116.141C6.99711 116.288 6.64778 116.491 6.32094 116.748C5.72494 117.217 5.30354 117.793 5.05673 118.475C4.81313 119.154 4.77948 119.899 4.95578 120.71C5.13528 121.518 5.56043 122.349 6.23122 123.201C6.90201 124.053 7.60913 124.662 8.3526 125.026C9.09926 125.388 9.83144 125.531 10.5491 125.453C11.27 125.374 11.9285 125.1 12.5245 124.631C12.8513 124.373 13.13 124.081 13.3606 123.755C13.5912 123.428 13.7605 123.079 13.8686 122.709C13.9773 122.333 14.016 121.947 13.9848 121.551C13.9543 121.15 13.8406 120.751 13.6438 120.356L14.8358 119.418C15.142 119.992 15.3329 120.571 15.4084 121.154C15.484 121.738 15.4553 122.308 15.3222 122.865C15.1866 123.418 14.956 123.939 14.6305 124.429C14.3082 124.916 13.8987 125.355 13.4021 125.746C12.5625 126.406 11.6545 126.789 10.6781 126.893C9.7016 126.997 8.72835 126.819 7.7583 126.358C6.78826 125.897 5.89472 125.147 5.07766 124.109C4.26061 123.071 3.74197 122.026 3.52174 120.975C3.30151 119.923 3.35684 118.935 3.68773 118.011C4.01863 117.086 4.60384 116.294 5.44337 115.633C5.94004 115.242 6.463 114.947 7.01227 114.748C7.56474 114.547 8.12691 114.447 8.69878 114.449C9.26812 114.447 9.8277 114.551 10.3775 114.762C10.9248 114.969 11.4425 115.291 11.9307 115.727ZM12.6547 110.251L20.1979 120.252L19.0455 121.121L11.5023 111.12L12.6547 110.251ZM24.6828 117.223C24.2021 117.574 23.6997 117.802 23.1756 117.907C22.6491 118.009 22.1443 117.971 21.6612 117.794C21.1758 117.613 20.7526 117.276 20.3918 116.782C20.0743 116.348 19.9025 115.933 19.8764 115.538C19.848 115.139 19.9204 114.758 20.0938 114.394C20.2672 114.03 20.4991 113.684 20.7894 113.356C21.0807 113.022 21.3856 112.703 21.7043 112.399C22.1219 112.003 22.4631 111.686 22.7279 111.447C22.9936 111.202 23.1646 110.994 23.241 110.822C23.3206 110.648 23.2919 110.467 23.1548 110.279L23.1259 110.24C22.7699 109.752 22.3599 109.471 21.896 109.396C21.4353 109.318 20.9367 109.476 20.4 109.868C19.8436 110.274 19.4963 110.715 19.3583 111.19C19.2202 111.664 19.188 112.087 19.2617 112.457L17.8667 112.87C17.7275 112.265 17.7287 111.714 17.8703 111.216C18.0128 110.713 18.2427 110.267 18.5599 109.879C18.878 109.485 19.228 109.149 19.61 108.869C19.8536 108.691 20.1551 108.517 20.5145 108.345C20.8747 108.168 21.268 108.06 21.6942 108.021C22.1237 107.98 22.5683 108.066 23.0281 108.281C23.4878 108.496 23.9378 108.904 24.3781 109.507L28.0297 114.505L26.8642 115.356L26.1136 114.329L26.0544 114.372C26.0956 114.594 26.0926 114.867 26.0454 115.189C25.9981 115.512 25.8695 115.851 25.6595 116.206C25.4496 116.561 25.124 116.9 24.6828 117.223ZM24.0956 116.046C24.5565 115.709 24.8789 115.335 25.0627 114.922C25.2497 114.508 25.3193 114.099 25.2713 113.694C25.2267 113.288 25.0889 112.926 24.8579 112.61L24.0785 111.543C24.0724 111.639 24.0035 111.772 23.8717 111.945C23.7407 112.111 23.5798 112.292 23.389 112.487C23.199 112.676 23.0116 112.858 22.8267 113.034C22.6427 113.204 22.4942 113.342 22.3811 113.45C22.1071 113.711 21.8708 113.982 21.6724 114.263C21.4748 114.539 21.3591 114.823 21.3253 115.116C21.2923 115.402 21.3841 115.694 21.6006 115.99C21.8965 116.395 22.27 116.592 22.7212 116.58C23.1732 116.563 23.6314 116.385 24.0956 116.046ZM30.1758 112.978L24.8256 105.255L25.9719 104.461L26.78 105.627L26.8605 105.572C26.7365 105.092 26.7765 104.605 26.9803 104.112C27.1841 103.619 27.5173 103.212 27.9799 102.891C28.067 102.831 28.1771 102.757 28.3102 102.67C28.4432 102.583 28.5456 102.519 28.6172 102.479L29.4532 103.686C29.406 103.704 29.3034 103.753 29.1453 103.832C28.9883 103.906 28.831 103.998 28.6735 104.107C28.2981 104.367 28.0175 104.678 27.8317 105.04C27.6469 105.396 27.5642 105.771 27.5837 106.164C27.6042 106.552 27.7352 106.92 27.9767 107.269L31.3624 112.156L30.1758 112.978ZM35.4583 109.35L30.2645 101.522L31.4674 100.724L36.6612 108.552L35.4583 109.35ZM30.0105 99.811C29.7761 99.9666 29.5209 100.021 29.2451 99.9739C28.9726 99.9246 28.762 99.7879 28.6133 99.5636C28.4645 99.3394 28.4204 99.0922 28.4809 98.822C28.5448 98.5496 28.694 98.3356 28.9285 98.1801C29.1629 98.0245 29.4164 97.9714 29.6888 98.0206C29.9647 98.0676 30.177 98.2032 30.3258 98.4275C30.4745 98.6517 30.517 98.9001 30.453 99.1725C30.3925 99.4426 30.245 99.6555 30.0105 99.811ZM37.3422 96.9895L37.9931 98.0253L33.8709 100.616L33.22 99.5802L37.3422 96.9895ZM33.2237 96.9194L34.4459 96.1513L39.2106 103.733C39.4276 104.078 39.6404 104.306 39.849 104.415C40.0589 104.519 40.2617 104.551 40.4574 104.51C40.6543 104.463 40.8426 104.383 41.0221 104.27C41.1568 104.186 41.2629 104.109 41.3405 104.041C41.416 103.97 41.4764 103.913 41.5216 103.87L42.4602 104.811C42.3969 104.895 42.3007 104.998 42.1718 105.123C42.0451 105.25 41.8677 105.386 41.6399 105.529C41.2946 105.746 40.9097 105.885 40.4849 105.944C40.0636 106.002 39.6488 105.947 39.2404 105.78C38.8354 105.611 38.4875 105.295 38.1968 104.832L33.2237 96.9194ZM46.7448 106.468C46.5313 106.587 46.331 106.676 46.1438 106.734C45.9586 106.796 45.825 106.828 45.7431 106.832L45.4424 105.542C45.7922 105.45 46.0786 105.327 46.3015 105.174C46.5245 105.021 46.6739 104.8 46.75 104.51C46.8315 104.221 46.8324 103.826 46.7525 103.324L46.6291 102.552L38.9873 96.0056L40.3539 95.2413L46.2716 100.509L46.3571 100.462L44.9661 92.6618L46.3327 91.8975L48.1068 103.239C48.1871 103.75 48.1892 104.209 48.1131 104.616C48.039 105.027 47.8867 105.385 47.6563 105.692C47.4295 105.996 47.1256 106.255 46.7448 106.468Z" fill="#9C40FF"/>
<path d="M57.2673 97.3171L53.4085 85.3998L57.4353 84.096C58.3702 83.7933 59.189 83.7146 59.8919 83.8599C60.5973 84.0001 61.1859 84.3088 61.6576 84.7861C62.1293 85.2634 62.4789 85.8531 62.7062 86.5553C62.9336 87.2575 62.9967 87.9421 62.8955 88.6092C62.7982 89.275 62.5081 89.8747 62.0251 90.4083C61.5408 90.938 60.8351 91.3529 59.908 91.6531L57.0217 92.5877L56.6072 91.3075L59.4469 90.388C60.087 90.1808 60.5652 89.9038 60.8815 89.557C61.1978 89.2103 61.3824 88.8205 61.4351 88.3877C61.4905 87.9497 61.4409 87.4922 61.2864 87.015C61.1319 86.5379 60.9045 86.14 60.6042 85.8215C60.3078 85.5018 59.9291 85.2986 59.4682 85.2121C59.0061 85.1218 58.4511 85.1815 57.8032 85.3912L55.2662 86.2127L58.7104 96.8498L57.2673 97.3171ZM72.5861 89.2592L71.5197 83.8088L72.9364 83.5317L74.7403 92.7517L73.3237 93.0288L73.0183 91.4682L72.9223 91.4869C72.7978 91.9974 72.5395 92.4614 72.1475 92.8788C71.7548 93.2922 71.2102 93.567 70.5139 93.7032C69.9377 93.816 69.4008 93.7901 68.9033 93.6257C68.405 93.4573 67.9776 93.142 67.6213 92.6799C67.2642 92.2138 67.0089 91.5885 66.8555 90.8042L65.7092 84.9457L67.1258 84.6685L68.2533 90.431C68.3848 91.1033 68.6778 91.6027 69.1323 91.9293C69.5907 92.2551 70.1141 92.3605 70.7023 92.2454C71.0545 92.1765 71.395 92.0163 71.724 91.765C72.0569 91.5129 72.311 91.1765 72.4863 90.7558C72.6656 90.3343 72.6989 89.8354 72.5861 89.2592ZM77.3464 92.3616L76.3705 83.0176L77.7575 82.8728L77.9049 84.2841L78.0022 84.2739C78.1242 83.7938 78.3933 83.3865 78.8093 83.0519C79.2254 82.7174 79.7132 82.5209 80.2729 82.4625C80.3783 82.4514 80.5103 82.4397 80.6689 82.4272C80.8275 82.4148 80.9478 82.4084 81.0298 82.408L81.1822 83.868C81.1323 83.8609 81.0189 83.8543 80.8419 83.8482C80.6686 83.8376 80.4867 83.8423 80.2961 83.8622C79.8419 83.9096 79.4463 84.0473 79.1093 84.2752C78.7759 84.4986 78.5232 84.7873 78.3511 85.1415C78.1826 85.4912 78.1204 85.8769 78.1645 86.2987L78.782 92.2117L77.3464 92.3616ZM83.9014 95.2856L83.2535 82.384L84.6463 82.3141L84.7211 83.8046L84.8922 83.796C84.9899 83.6278 85.1261 83.4127 85.3007 83.1508C85.4792 82.8846 85.7406 82.6429 86.0849 82.4255C86.4331 82.2039 86.9126 82.0778 87.5235 82.0471C88.3135 82.0074 89.0198 82.1699 89.6424 82.5347C90.265 82.8995 90.7635 83.4358 91.1379 84.1437C91.5123 84.8516 91.7243 85.6984 91.7738 86.6839C91.8237 87.6776 91.6979 88.5474 91.3965 89.2934C91.0949 90.0352 90.6548 90.6208 90.0762 91.0499C89.4974 91.475 88.817 91.7072 88.0351 91.7465C87.4323 91.7768 86.9447 91.7012 86.5723 91.5199C86.1996 91.3344 85.9091 91.1184 85.7007 90.8716C85.4921 90.6208 85.3306 90.4125 85.2161 90.2468L85.094 90.2529L85.3431 95.2132L83.9014 95.2856ZM84.9063 87.0043C84.9419 87.7129 85.0772 88.3328 85.3121 88.8641C85.5467 89.3912 85.8713 89.7975 86.2858 90.0828C86.7 90.3642 87.1963 90.4903 87.7746 90.4613C88.3773 90.431 88.8723 90.2469 89.2595 89.909C89.6506 89.5668 89.9343 89.1198 90.1107 88.5679C90.291 88.0118 90.3644 87.3998 90.3309 86.7319C90.2977 86.0721 90.1661 85.4827 89.9358 84.9635C89.7095 84.44 89.3849 84.0337 88.9621 83.7447C88.5432 83.4514 88.0283 83.32 87.4174 83.3507C86.831 83.3802 86.3457 83.5536 85.9615 83.8709C85.5772 84.1842 85.2965 84.6106 85.1194 85.1503C84.9422 85.6858 84.8711 86.3039 84.9063 87.0043ZM98.0282 91.3307C97.1805 91.359 96.43 91.1822 95.7767 90.8001C95.1274 90.4179 94.6114 89.8702 94.2285 89.1567C93.8496 88.4432 93.644 87.6015 93.6115 86.6315C93.5788 85.6535 93.7275 84.7937 94.0577 84.0524C94.3919 83.3109 94.8701 82.7278 95.4924 82.3031C96.1187 81.8782 96.8557 81.6516 97.7034 81.6232C98.551 81.5949 99.2995 81.7718 99.9487 82.154C100.602 82.536 101.118 83.0858 101.497 83.8035C101.88 84.5209 102.088 85.3687 102.121 86.3468C102.153 87.3167 102.002 88.1704 101.668 88.9078C101.338 89.6451 100.859 90.2262 100.233 90.651C99.6108 91.0758 98.8758 91.3023 98.0282 91.3307ZM97.9848 90.0347C98.6287 90.0132 99.153 89.8304 99.5576 89.4864C99.9623 89.1424 100.255 88.698 100.437 88.1534C100.619 87.6088 100.699 87.0227 100.678 86.3951C100.657 85.7675 100.538 85.186 100.32 84.6507C100.102 84.1153 99.7797 83.6875 99.3529 83.3673C98.926 83.047 98.3906 82.8976 97.7467 82.9192C97.1028 82.9407 96.5786 83.1255 96.1741 83.4736C95.7696 83.8217 95.4766 84.2701 95.295 84.8188C95.1135 85.3675 95.0332 85.9557 95.0542 86.5833C95.0752 87.2109 95.1945 87.7903 95.4122 88.3216C95.6299 88.8528 95.9521 89.2765 96.3789 89.5927C96.8056 89.9089 97.3409 90.0563 97.9848 90.0347ZM110.585 83.1138L109.318 83.5738C109.221 83.3641 109.086 83.1634 108.912 82.9716C108.743 82.7754 108.519 82.6199 108.241 82.5052C107.963 82.3905 107.614 82.3484 107.195 82.3788C106.622 82.4204 106.153 82.5873 105.79 82.8794C105.431 83.1672 105.266 83.5124 105.295 83.915C105.321 84.2729 105.472 84.5461 105.747 84.7346C106.023 84.9231 106.442 85.0664 107.005 85.1645L108.421 85.4051C109.273 85.5476 109.92 85.8134 110.361 86.2024C110.802 86.5874 111.046 87.1073 111.094 87.7621C111.133 88.2989 111.013 88.79 110.735 89.2354C110.461 89.6805 110.058 90.045 109.526 90.3289C108.995 90.6128 108.366 90.7812 107.638 90.8341C106.682 90.9035 105.876 90.7535 105.219 90.3842C104.563 90.0148 104.122 89.4377 103.898 88.6527L105.239 88.2118C105.406 88.7067 105.68 89.067 106.06 89.2929C106.444 89.5184 106.931 89.6098 107.521 89.567C108.192 89.5182 108.714 89.3372 109.088 89.0239C109.466 88.7062 109.64 88.346 109.611 87.9434C109.587 87.618 109.453 87.3538 109.21 87.1507C108.966 86.9436 108.604 86.8023 108.124 86.7267L106.536 86.4741C105.663 86.3331 105.01 86.0637 104.576 85.6659C104.146 85.2638 103.908 84.7394 103.861 84.0928C103.822 83.5641 103.937 83.0856 104.204 82.6573C104.476 82.2288 104.861 81.8798 105.361 81.6105C105.865 81.3409 106.446 81.1822 107.105 81.1343C108.032 81.067 108.775 81.2174 109.333 81.5857C109.895 81.9537 110.312 82.4631 110.585 83.1138ZM117.364 89.7342C116.468 89.8668 115.666 89.7836 114.958 89.4845C114.254 89.1808 113.673 88.698 113.217 88.036C112.763 87.3694 112.466 86.5602 112.325 85.6082C112.184 84.6563 112.233 83.7916 112.473 83.0142C112.715 82.2321 113.119 81.5911 113.684 81.0911C114.252 80.5864 114.956 80.272 115.795 80.1477C116.279 80.076 116.769 80.0858 117.265 80.1773C117.761 80.2687 118.229 80.4673 118.67 80.7729C119.111 81.0745 119.49 81.5048 119.807 82.0637C120.125 82.6225 120.348 83.3356 120.477 84.2028L120.566 84.8079L113.403 85.8691L113.22 84.6348L118.931 83.7887C118.854 83.2643 118.68 82.812 118.409 82.4316C118.142 82.0507 117.8 81.7696 117.381 81.5884C116.967 81.4065 116.501 81.3539 115.985 81.4304C115.416 81.5146 114.945 81.7287 114.572 82.0726C114.201 82.4119 113.938 82.8218 113.783 83.3024C113.627 83.783 113.588 84.2794 113.664 84.7917L113.785 85.6145C113.889 86.3164 114.099 86.8934 114.413 87.3456C114.731 87.7932 115.126 88.1118 115.599 88.3014C116.072 88.4869 116.597 88.537 117.174 88.4515C117.549 88.3959 117.88 88.2933 118.167 88.1436C118.457 87.9893 118.697 87.7888 118.888 87.5422C119.077 87.2915 119.209 86.9958 119.282 86.6552L120.719 86.8381C120.643 87.3275 120.46 87.7751 120.169 88.1808C119.879 88.5825 119.496 88.9196 119.021 89.1919C118.545 89.4602 117.993 89.641 117.364 89.7342Z" fill="#FFD166"/>
<path d="M129.995 73.664L134.283 85.4335L132.858 85.9528L128.57 74.1833L129.995 73.664ZM136.891 84.3105L132.616 75.9451L133.857 75.3104L134.525 76.6175L134.634 76.5618C134.58 76.0262 134.685 75.5356 134.947 75.0901C135.207 74.641 135.61 74.2773 136.154 73.9989C136.706 73.7168 137.23 73.6073 137.724 73.6704C138.221 73.728 138.687 73.9272 139.122 74.268L139.209 74.2235C139.203 73.6819 139.349 73.1745 139.647 72.7014C139.944 72.2246 140.392 71.8331 140.991 71.5269C141.739 71.1446 142.47 71.0661 143.185 71.2913C143.898 71.513 144.506 72.1158 145.009 73.0997L147.871 78.6984L146.586 79.3554L143.724 73.7567C143.409 73.1394 143.014 72.7846 142.541 72.6921C142.068 72.5997 141.603 72.6704 141.145 72.9042C140.557 73.2049 140.192 73.6157 140.051 74.1367C139.908 74.654 139.975 75.1832 140.251 75.7242L143.035 81.1704L141.728 81.8385L138.799 76.1091C138.556 75.6335 138.206 75.3293 137.749 75.1966C137.29 75.0602 136.817 75.1164 136.331 75.3651C135.997 75.5358 135.73 75.7844 135.53 76.1107C135.334 76.4353 135.228 76.8009 135.212 77.2077C135.197 77.6091 135.295 78.0149 135.504 78.4252L138.177 83.6535L136.891 84.3105ZM151.932 80.5026L145.501 69.2992L146.711 68.605L147.454 69.8993L147.602 69.814C147.613 69.6198 147.637 69.3664 147.673 69.0537C147.712 68.7355 147.835 68.4015 148.043 68.0516C148.253 67.6961 148.623 67.3662 149.153 67.0617C149.84 66.6679 150.543 66.4923 151.263 66.5349C151.983 66.5775 152.671 66.8293 153.326 67.2902C153.981 67.7512 154.554 68.4096 155.045 69.2655C155.54 70.1283 155.823 70.9605 155.893 71.762C155.96 72.56 155.834 73.2815 155.513 73.9264C155.19 74.5679 154.689 75.0835 154.01 75.4732C153.487 75.7737 153.018 75.9276 152.604 75.935C152.187 75.9388 151.83 75.878 151.533 75.7527C151.233 75.6238 150.995 75.5115 150.818 75.4157L150.711 75.4766L153.184 79.784L151.932 80.5026ZM149.07 72.6667C149.424 73.2821 149.825 73.7732 150.276 74.14C150.724 74.5032 151.198 74.718 151.696 74.7843C152.193 74.8471 152.693 74.7343 153.195 74.4461C153.718 74.1457 154.076 73.757 154.268 73.2802C154.461 72.7979 154.511 72.2708 154.418 71.6989C154.326 71.1215 154.114 70.5428 153.781 69.9628C153.452 69.3899 153.067 68.9244 152.626 68.5661C152.187 68.2023 151.714 67.9876 151.206 67.9218C150.699 67.8504 150.181 67.967 149.65 68.2715C149.141 68.5638 148.787 68.9385 148.589 69.3956C148.389 69.8492 148.332 70.3566 148.419 70.9178C148.504 71.4755 148.721 72.0585 149.07 72.6667ZM161.953 71.409C161.409 71.6526 160.871 71.7714 160.336 71.7653C159.8 71.7555 159.314 71.6137 158.878 71.3398C158.441 71.0623 158.097 70.6444 157.847 70.0864C157.627 69.5952 157.545 69.1538 157.601 68.7619C157.656 68.3663 157.807 68.0085 158.052 67.6885C158.297 67.3684 158.596 67.078 158.948 66.8173C159.303 66.5511 159.667 66.3027 160.042 66.0721C160.533 65.7715 160.932 65.5319 161.241 65.3532C161.552 65.1692 161.762 65.001 161.873 64.8487C161.987 64.6947 161.996 64.5117 161.901 64.2996L161.881 64.2549C161.634 63.7043 161.292 63.344 160.854 63.1741C160.419 63.0025 159.899 63.0527 159.292 63.3247C158.663 63.6067 158.232 63.9654 157.999 64.4009C157.765 64.8364 157.646 65.243 157.641 65.6206L156.19 65.7348C156.18 65.1138 156.296 64.5747 156.538 64.1177C156.782 63.6552 157.099 63.267 157.49 62.9531C157.883 62.6339 158.295 62.3774 158.727 62.1839C159.002 62.0604 159.334 61.952 159.721 61.8588C160.11 61.7602 160.517 61.7363 160.942 61.787C161.371 61.8361 161.788 62.0133 162.193 62.3188C162.598 62.6242 162.953 63.1173 163.259 63.7982L165.791 69.446L164.474 70.0367L163.954 68.8759L163.887 68.9059C163.881 69.132 163.821 69.3978 163.708 69.7033C163.595 70.0088 163.399 70.3136 163.119 70.6176C162.84 70.9216 162.451 71.1854 161.953 71.409ZM161.623 70.1357C162.144 69.9021 162.537 69.6029 162.802 69.2381C163.071 68.8716 163.225 68.4856 163.262 68.0802C163.303 67.6731 163.243 67.2909 163.083 66.9338L162.542 65.7283C162.516 65.8203 162.421 65.9367 162.256 66.0776C162.094 66.2132 161.899 66.3565 161.672 66.5075C161.446 66.6532 161.225 66.7926 161.008 66.9258C160.793 67.0537 160.618 67.1586 160.485 67.2406C160.163 67.4388 159.876 67.6548 159.623 67.8888C159.373 68.1173 159.2 68.3711 159.106 68.65C159.015 68.9236 159.044 69.2278 159.194 69.5626C159.399 70.0203 159.724 70.2904 160.167 70.3729C160.613 70.4501 161.098 70.371 161.623 70.1357ZM172.007 67.8295C171.154 68.0477 170.367 68.0341 169.648 67.7887C168.929 67.5433 168.313 67.1095 167.8 66.4872C167.288 65.8649 166.915 65.0994 166.683 64.1908C166.446 63.2663 166.408 62.4071 166.567 61.6131C166.729 60.8142 167.065 60.1369 167.575 59.5813C168.088 59.0208 168.756 58.6355 169.577 58.4254C170.217 58.2618 170.825 58.2328 171.399 58.3385C171.973 58.4443 172.478 58.6685 172.915 59.0114C173.352 59.3542 173.683 59.7999 173.908 60.3486L172.509 60.7062C172.296 60.3186 171.965 60.0118 171.516 59.7858C171.07 59.5548 170.539 59.518 169.922 59.6756C169.377 59.815 168.936 60.0794 168.597 60.4689C168.262 60.8534 168.046 61.3318 167.948 61.9039C167.853 62.4711 167.893 63.0984 168.069 63.7858C168.249 64.489 168.516 65.073 168.871 65.538C169.229 66.0019 169.649 66.326 170.129 66.5103C170.614 66.6937 171.133 66.7146 171.686 66.5732C172.049 66.4803 172.363 66.3328 172.627 66.1306C172.891 65.9284 173.095 65.6826 173.24 65.393C173.385 65.1034 173.458 64.7816 173.461 64.4276L174.859 64.07C174.917 64.6275 174.846 65.1614 174.644 65.6718C174.445 66.1773 174.123 66.6215 173.678 67.0047C173.236 67.3828 172.679 67.6578 172.007 67.8295ZM180.687 56.626L180.814 57.8426L175.972 58.3498L175.845 57.1331L180.687 56.626ZM177.022 54.7467L178.457 54.5964L179.39 63.5021C179.433 63.9076 179.523 64.2056 179.662 64.3961C179.804 64.5821 179.973 64.6998 180.166 64.7492C180.364 64.7941 180.568 64.8055 180.779 64.7834C180.937 64.7668 181.066 64.7451 181.166 64.7183C181.265 64.6874 181.344 64.6627 181.404 64.6442L181.831 65.9032C181.737 65.9499 181.605 66.0006 181.435 66.0554C181.265 66.1142 181.046 66.1576 180.778 66.1857C180.373 66.2281 179.966 66.1826 179.558 66.049C179.155 65.9149 178.807 65.6829 178.514 65.3527C178.225 65.0222 178.052 64.5852 177.995 64.0418L177.022 54.7467Z" fill="#3AB16F"/>
<path d="M194.893 54.0261L196.402 54.1791L195.499 63.0879C195.419 63.883 195.204 64.5437 194.856 65.0698C194.507 65.596 194.053 65.9762 193.492 66.2103C192.931 66.4445 192.29 66.525 191.568 66.4518C190.886 66.3827 190.292 66.1974 189.786 65.8961C189.28 65.5907 188.898 65.1913 188.641 64.698C188.384 64.2047 188.287 63.6396 188.352 63.0027L189.837 63.1532C189.801 63.5061 189.857 63.8233 190.004 64.1047C190.157 64.3824 190.379 64.6099 190.673 64.7872C190.967 64.9645 191.31 65.0731 191.704 65.113C192.138 65.157 192.516 65.1032 192.839 64.9514C193.162 64.7997 193.42 64.5554 193.614 64.2185C193.812 63.878 193.938 63.4501 193.99 62.9349L194.893 54.0261ZM201.732 67.5653C200.89 67.4702 200.173 67.1862 199.582 66.7133C198.995 66.2408 198.564 65.6238 198.289 64.8624C198.018 64.1013 197.936 63.2387 198.045 62.2743C198.155 61.3019 198.427 60.4729 198.861 59.7874C199.3 59.1023 199.858 58.5949 200.535 58.2651C201.217 57.9357 201.979 57.8186 202.821 57.9137C203.664 58.0088 204.379 58.2926 204.966 58.7651C205.557 59.238 205.988 59.857 206.258 60.622C206.533 61.3876 206.615 62.2566 206.506 63.229C206.397 64.1934 206.123 65.016 205.686 65.697C205.252 66.3785 204.694 66.8839 204.013 67.2133C203.335 67.5431 202.575 67.6604 201.732 67.5653ZM201.878 66.2768C202.518 66.3491 203.063 66.2444 203.513 65.9628C203.964 65.6813 204.318 65.2843 204.577 64.7718C204.836 64.2594 205.001 63.6911 205.071 63.0671C205.142 62.4432 205.108 61.8505 204.97 61.2892C204.833 60.7279 204.576 60.2578 204.2 59.8789C203.824 59.5 203.316 59.2744 202.676 59.2022C202.036 59.13 201.49 59.2366 201.04 59.5223C200.589 59.8079 200.234 60.2089 199.974 60.7254C199.715 61.2419 199.55 61.8122 199.48 62.4362C199.409 63.0602 199.443 63.6508 199.581 64.208C199.72 64.7653 199.977 65.2313 200.353 65.6062C200.729 65.981 201.238 66.2046 201.878 66.2768ZM208.995 71.2797C208.751 71.2954 208.532 71.2891 208.338 71.2608C208.144 71.2365 208.01 71.2084 207.934 71.1765L208.218 69.8833C208.574 69.9502 208.885 69.9629 209.152 69.9211C209.419 69.8794 209.65 69.744 209.843 69.5149C210.041 69.2897 210.212 68.9334 210.357 68.446L210.578 67.6962L206.503 58.4957L208.066 58.3949L211.136 65.6989L211.233 65.6926L213.339 58.0547L214.902 57.9539L211.615 68.9532C211.467 69.449 211.271 69.8641 211.027 70.1986C210.784 70.5371 210.492 70.7949 210.152 70.9722C209.816 71.1491 209.43 71.2516 208.995 71.2797Z" fill="#0048FF"/>
<path d="M226.797 64.1882L221.261 52.9512L222.622 52.2809L227.563 62.3108L232.786 59.7377L233.381 60.9448L226.797 64.1882ZM238.512 57.9489C237.801 58.412 237.068 58.6492 236.311 58.6606C235.558 58.6697 234.832 58.4682 234.135 58.056C233.442 57.6417 232.83 57.028 232.3 56.2149C231.766 55.395 231.448 54.5825 231.347 53.7773C231.249 52.9699 231.356 52.2234 231.669 51.5379C231.985 50.8502 232.498 50.2748 233.209 49.8117C233.919 49.3486 234.651 49.1125 235.404 49.1034C236.161 49.092 236.887 49.2952 237.583 49.713C238.282 50.1286 238.899 50.7463 239.433 51.5662C239.963 52.3792 240.276 53.1877 240.372 53.9917C240.471 54.7935 240.362 55.5383 240.046 56.226C239.734 56.9115 239.222 57.4858 238.512 57.9489ZM237.804 56.8626C238.344 56.5108 238.698 56.083 238.866 55.5792C239.034 55.0754 239.055 54.5435 238.928 53.9835C238.802 53.4235 238.567 52.8804 238.224 52.3543C237.881 51.8282 237.478 51.3926 237.014 51.0473C236.551 50.7021 236.054 50.5029 235.523 50.4499C234.992 50.3969 234.456 50.5462 233.917 50.898C233.377 51.2498 233.024 51.6793 232.858 52.1865C232.692 52.6937 232.674 53.229 232.802 53.7925C232.931 54.3559 233.167 54.9007 233.51 55.4268C233.853 55.9528 234.255 56.3868 234.716 56.7286C235.177 57.0705 235.672 57.2662 236.201 57.3158C236.73 57.3654 237.264 57.2144 237.804 56.8626ZM246.847 42.9261L247.48 52.9227L246.138 53.5179L239.153 46.3385L240.585 45.7036L245.991 51.4957L246.08 51.456L245.415 43.561L246.847 42.9261ZM255.958 50.0699C255.093 50.3343 254.287 50.3712 253.543 50.1808C252.801 49.9852 252.155 49.5941 251.605 49.0075C251.058 48.4157 250.643 47.6597 250.362 46.7393C250.081 45.8189 250.001 44.9566 250.122 44.1522C250.246 43.3427 250.55 42.6487 251.034 42.0703C251.521 41.4867 252.17 41.0711 252.981 40.8234C253.449 40.6805 253.935 40.6173 254.439 40.634C254.943 40.6507 255.436 40.7773 255.917 41.014C256.398 41.2467 256.837 41.6158 257.234 42.1212C257.631 42.6266 257.958 43.2985 258.214 44.137L258.393 44.722L251.467 46.837L251.102 45.6436L256.624 43.9573C256.469 43.4504 256.23 43.0289 255.906 42.6931C255.585 42.356 255.205 42.129 254.764 42.0121C254.327 41.8939 253.859 41.9111 253.36 42.0635C252.81 42.2314 252.376 42.5132 252.058 42.9089C251.742 43.2994 251.543 43.7439 251.461 44.2423C251.378 44.7406 251.413 45.2375 251.564 45.7328L251.807 46.5283C252.014 47.2069 252.307 47.7464 252.685 48.1468C253.066 48.5422 253.504 48.7984 254.001 48.9154C254.496 49.0286 255.022 49 255.58 48.8297C255.942 48.719 256.254 48.5683 256.516 48.3775C256.78 48.1817 256.988 47.9478 257.139 47.6756C257.29 47.3995 257.375 47.0876 257.397 46.7399L258.845 46.707C258.843 47.2022 258.729 47.672 258.502 48.1165C258.274 48.557 257.945 48.9472 257.516 49.2871C257.086 49.6232 256.567 49.8841 255.958 50.0699Z" fill="#FF2828"/>
<path d="M266.617 46.9074L263.722 34.7202L267.84 33.7419C268.796 33.5148 269.618 33.5017 270.307 33.7026C270.999 33.8987 271.561 34.2534 271.993 34.7668C272.426 35.2803 272.727 35.896 272.897 36.6141C273.068 37.3321 273.076 38.0196 272.922 38.6765C272.772 39.3324 272.435 39.9071 271.911 40.4004C271.386 40.8897 270.649 41.247 269.701 41.4723L266.75 42.1735L266.439 40.8643L269.343 40.1744C269.997 40.0189 270.496 39.781 270.839 39.4606C271.182 39.1402 271.397 38.7664 271.484 38.3392C271.574 37.907 271.561 37.447 271.445 36.959C271.33 36.471 271.135 36.0563 270.861 35.7149C270.591 35.3725 270.23 35.1398 269.777 35.0168C269.324 34.8898 268.766 34.905 268.103 35.0624L265.508 35.6788L268.093 46.5568L266.617 46.9074ZM280.862 43.8333C279.977 44.0248 279.171 43.9946 278.445 43.7429C277.722 43.4864 277.111 43.0429 276.612 42.4125C276.115 41.7773 275.766 40.9894 275.562 40.0489C275.358 39.1083 275.35 38.2423 275.538 37.4507C275.729 36.6543 276.089 35.9881 276.62 35.4519C277.154 34.9108 277.835 34.5506 278.664 34.3712C279.142 34.2677 279.632 34.2452 280.132 34.3037C280.633 34.3623 281.114 34.5295 281.574 34.8053C282.033 35.0772 282.44 35.4815 282.794 36.0182C283.148 36.5549 283.417 37.2517 283.603 38.1086L283.732 38.7064L276.654 40.238L276.39 39.0185L282.034 37.7973C281.922 37.2792 281.718 36.8393 281.423 36.4777C281.131 36.1151 280.771 35.8573 280.342 35.7041C279.916 35.55 279.448 35.5282 278.938 35.6386C278.376 35.7602 277.92 36.0049 277.57 36.3727C277.223 36.7356 276.988 37.162 276.864 37.6518C276.741 38.1416 276.734 38.6396 276.843 39.1457L277.019 39.9588C277.169 40.6522 277.416 41.2142 277.76 41.6447C278.106 42.0703 278.522 42.3621 279.007 42.52C279.491 42.674 280.017 42.6893 280.587 42.566C280.958 42.4858 281.282 42.3615 281.558 42.1932C281.838 42.0201 282.064 41.8041 282.238 41.5455C282.41 41.2828 282.522 40.9792 282.572 40.6345L284.018 40.7221C283.975 41.2155 283.822 41.6742 283.559 42.0982C283.295 42.5182 282.935 42.8798 282.479 43.1828C282.023 43.4819 281.483 43.6988 280.862 43.8333ZM289.515 41.9695C288.933 42.0977 288.381 42.1045 287.859 41.99C287.336 41.8715 286.889 41.6339 286.518 41.2773C286.147 40.9167 285.895 40.4377 285.763 39.8404C285.647 39.3148 285.657 38.8659 285.792 38.4937C285.926 38.1176 286.146 37.7977 286.451 37.5342C286.756 37.2706 287.108 37.047 287.505 36.8632C287.906 36.6746 288.314 36.5054 288.728 36.3557C289.269 36.1611 289.709 36.0077 290.048 35.8955C290.39 35.7784 290.63 35.6565 290.769 35.5298C290.912 35.4022 290.959 35.2249 290.909 34.9979L290.898 34.9502C290.768 34.3608 290.506 33.9385 290.111 33.6831C289.721 33.4268 289.201 33.3702 288.552 33.5133C287.879 33.6617 287.384 33.9254 287.066 34.3043C286.749 34.6833 286.55 35.0571 286.468 35.4258L285.025 35.243C285.141 34.6329 285.364 34.1286 285.693 33.7302C286.026 33.3269 286.416 33.0114 286.863 32.7834C287.312 32.5506 287.768 32.3833 288.23 32.2815C288.525 32.2165 288.871 32.1777 289.269 32.1651C289.67 32.1476 290.074 32.2069 290.48 32.3429C290.889 32.478 291.262 32.7363 291.596 33.1176C291.931 33.499 292.179 34.054 292.339 34.7827L293.672 40.8273L292.262 41.1381L291.988 39.8958L291.917 39.9116C291.865 40.1317 291.753 40.3799 291.58 40.656C291.407 40.9322 291.153 41.1907 290.818 41.4316C290.482 41.6726 290.048 41.8519 289.515 41.9695ZM289.45 40.6558C290.008 40.5329 290.454 40.3198 290.788 40.0165C291.125 39.7123 291.354 39.3655 291.473 38.9761C291.595 38.5857 291.614 38.1994 291.53 37.8172L291.246 36.527C291.202 36.6119 291.085 36.7065 290.895 36.811C290.708 36.9107 290.488 37.0114 290.235 37.1131C289.985 37.21 289.74 37.3016 289.5 37.3879C289.263 37.4693 289.072 37.5367 288.925 37.59C288.569 37.7185 288.243 37.8717 287.949 38.0494C287.657 38.2223 287.437 38.4358 287.288 38.6899C287.143 38.9391 287.109 39.2429 287.188 39.6013C287.296 40.091 287.559 40.4214 287.977 40.5924C288.398 40.7585 288.889 40.7796 289.45 40.6558ZM299.988 39.4988C299.134 39.7107 298.347 39.6912 297.63 39.4405C296.912 39.1898 296.3 38.7514 295.792 38.1253C295.284 37.4992 294.917 36.731 294.691 35.8207C294.462 34.8945 294.429 34.0351 294.594 33.2422C294.762 32.4445 295.103 31.7697 295.618 31.218C296.135 30.6613 296.805 30.281 297.629 30.077C298.27 29.9181 298.877 29.8936 299.45 30.0036C300.024 30.1136 300.528 30.3416 300.962 30.6877C301.397 31.0337 301.724 31.4819 301.944 32.0323L300.543 32.3794C300.333 31.9903 300.005 31.6811 299.557 31.4517C299.113 31.2174 298.582 31.1767 297.964 31.3297C297.418 31.465 296.974 31.7262 296.633 32.1131C296.295 32.4952 296.075 32.9719 295.973 33.5433C295.874 34.1098 295.91 34.7373 296.081 35.426C296.255 36.1305 296.518 36.7166 296.869 37.1841C297.224 37.6506 297.641 37.9779 298.121 38.1658C298.604 38.3527 299.122 38.3775 299.677 38.2402C300.041 38.15 300.356 38.0048 300.621 37.8046C300.886 37.6044 301.093 37.36 301.24 37.0716C301.387 36.7831 301.462 36.4618 301.467 36.1078L302.868 35.7606C302.922 36.3185 302.847 36.8519 302.641 37.3608C302.438 37.8647 302.113 38.3066 301.665 38.6865C301.22 39.0613 300.661 39.3321 299.988 39.4988ZM309.345 36.7551C308.486 37.041 307.682 37.0981 306.933 36.9263C306.187 36.7493 305.531 36.3744 304.967 35.8017C304.405 35.2238 303.972 34.4783 303.668 33.5652C303.364 32.6521 303.262 31.792 303.363 30.9849C303.467 30.1726 303.753 29.4712 304.223 28.8809C304.695 28.2853 305.334 27.8536 306.138 27.5858C306.603 27.4312 307.087 27.356 307.591 27.3601C308.095 27.3642 308.591 27.4785 309.078 27.7031C309.564 27.9238 310.012 28.2818 310.422 28.7771C310.832 29.2724 311.175 29.936 311.452 30.7678L311.645 31.3482L304.774 33.6353L304.38 32.4514L309.859 30.6279C309.691 30.1249 309.441 29.7096 309.109 29.3819C308.78 29.053 308.394 28.8356 307.95 28.7296C307.511 28.6224 307.043 28.6512 306.548 28.8161C306.002 28.9977 305.576 29.2902 305.267 29.6937C304.961 30.092 304.774 30.5413 304.704 31.0415C304.634 31.5418 304.681 32.0376 304.844 32.529L305.107 33.3182C305.331 33.9914 305.637 34.5235 306.025 34.9143C306.416 35.3 306.86 35.5452 307.359 35.6499C307.857 35.7507 308.383 35.709 308.936 35.5248C309.296 35.4051 309.604 35.2466 309.861 35.0494C310.12 34.8471 310.322 34.608 310.466 34.3321C310.609 34.0523 310.688 33.7384 310.701 33.3903L312.147 33.3212C312.158 33.8164 312.055 34.2889 311.839 34.7389C311.622 35.1849 311.304 35.5832 310.883 35.9338C310.462 36.2805 309.949 36.5543 309.345 36.7551Z" fill="#FF8EDD"/>
</svg>
