<svg width="38" height="38" viewBox="0 0 38 38" fill="none" xmlns="http://www.w3.org/2000/svg">
<path d="M19 10L6 14.8284L19 21.2662L25.1917 18.1999L19.3832 16.441C19.2636 16.4979 19.1327 16.5275 19 16.5278C18.7638 16.5278 18.5372 16.4348 18.3702 16.2694C18.2031 16.1039 18.1093 15.8795 18.1093 15.6456C18.1093 15.4116 18.2031 15.1872 18.3702 15.0218C18.5372 14.8563 18.7638 14.7634 19 14.7634L18.8527 15.2377L19.8847 15.5521L19.8851 15.5552L21.4079 16.0164L30.0786 18.6586V19.3283C29.9586 19.4091 29.8605 19.5177 29.7925 19.6446C29.7246 19.7716 29.689 19.913 29.6889 20.0567C29.689 20.2036 29.7262 20.3482 29.7972 20.4773C29.8681 20.6064 29.9704 20.7159 30.0949 20.7958C29.6894 22.3135 29.6889 25.7569 29.6889 27.1143C30.5796 27.6874 30.5796 27.7084 31.4703 27.1143C31.4703 25.7571 31.4699 22.3143 31.0645 20.7963C31.189 20.7163 31.2914 20.6067 31.3623 20.4775C31.4331 20.3483 31.4703 20.2036 31.4703 20.0566C31.4703 19.9128 31.4348 19.7712 31.3669 19.644C31.299 19.5169 31.2007 19.4082 31.0806 19.3273V17.9257L27.778 16.9193L32 14.8284L19 10ZM11.4077 18.7884L10.6772 23.13C12.1344 23.3187 13.8775 24.1576 15.4799 25.1495C16.3912 25.7137 17.2449 26.333 17.9381 26.9338C18.3619 27.301 18.7162 27.6533 19 28C19.2838 27.6533 19.6381 27.301 20.0619 26.9338C20.7551 26.333 21.6087 25.7137 22.5201 25.1495C24.1225 24.1576 25.8656 23.3187 27.3228 23.13L26.5922 18.7884H26.2442L19 22.3759L11.7557 18.7884H11.4077Z" fill="#E76F51"/>
</svg>
