<svg width="32" height="32" viewBox="0 0 32 32" fill="none" xmlns="http://www.w3.org/2000/svg">
<rect x="0.5" y="0.5" width="31" height="31" rx="15.5" stroke="#E76F51"/>
<path d="M13.2 9.3335H18.8C20.9333 9.3335 22.6666 11.0668 22.6666 13.2002V18.8002C22.6666 19.8257 22.2593 20.8092 21.5341 21.5343C20.809 22.2595 19.8255 22.6668 18.8 22.6668H13.2C11.0666 22.6668 9.33331 20.9335 9.33331 18.8002V13.2002C9.33331 12.1747 9.74069 11.1912 10.4658 10.466C11.191 9.74088 12.1745 9.3335 13.2 9.3335ZM13.0666 10.6668C12.4301 10.6668 11.8197 10.9197 11.3696 11.3698C10.9195 11.8199 10.6666 12.4303 10.6666 13.0668V18.9335C10.6666 20.2602 11.74 21.3335 13.0666 21.3335H18.9333C19.5698 21.3335 20.1803 21.0806 20.6304 20.6306C21.0805 20.1805 21.3333 19.57 21.3333 18.9335V13.0668C21.3333 11.7402 20.26 10.6668 18.9333 10.6668H13.0666ZM19.5 11.6668C19.721 11.6668 19.933 11.7546 20.0892 11.9109C20.2455 12.0672 20.3333 12.2791 20.3333 12.5002C20.3333 12.7212 20.2455 12.9331 20.0892 13.0894C19.933 13.2457 19.721 13.3335 19.5 13.3335C19.279 13.3335 19.067 13.2457 18.9107 13.0894C18.7544 12.9331 18.6666 12.7212 18.6666 12.5002C18.6666 12.2791 18.7544 12.0672 18.9107 11.9109C19.067 11.7546 19.279 11.6668 19.5 11.6668ZM16 12.6668C16.884 12.6668 17.7319 13.018 18.357 13.6431C18.9821 14.2683 19.3333 15.1161 19.3333 16.0002C19.3333 16.8842 18.9821 17.7321 18.357 18.3572C17.7319 18.9823 16.884 19.3335 16 19.3335C15.1159 19.3335 14.2681 18.9823 13.643 18.3572C13.0178 17.7321 12.6666 16.8842 12.6666 16.0002C12.6666 15.1161 13.0178 14.2683 13.643 13.6431C14.2681 13.018 15.1159 12.6668 16 12.6668ZM16 14.0002C15.4695 14.0002 14.9608 14.2109 14.5858 14.5859C14.2107 14.961 14 15.4697 14 16.0002C14 16.5306 14.2107 17.0393 14.5858 17.4144C14.9608 17.7894 15.4695 18.0002 16 18.0002C16.5304 18.0002 17.0391 17.7894 17.4142 17.4144C17.7893 17.0393 18 16.5306 18 16.0002C18 15.4697 17.7893 14.961 17.4142 14.5859C17.0391 14.2109 16.5304 14.0002 16 14.0002Z" fill="#E76F51"/>
</svg>
