<svg width="32" height="32" viewBox="0 0 32 32" fill="none" xmlns="http://www.w3.org/2000/svg">
<rect x="0.5" y="0.5" width="31" height="31" rx="15.5" stroke="#E76F51"/>
<path d="M22.9733 11.9998C22.46 12.2332 21.9067 12.3865 21.3333 12.4598C21.92 12.1065 22.3733 11.5465 22.5867 10.8732C22.0333 11.2065 21.42 11.4398 20.7733 11.5732C20.2467 10.9998 19.5067 10.6665 18.6667 10.6665C17.1 10.6665 15.82 11.9465 15.82 13.5265C15.82 13.7532 15.8467 13.9732 15.8933 14.1798C13.52 14.0598 11.4067 12.9198 10 11.1932C9.75334 11.6132 9.61334 12.1065 9.61334 12.6265C9.61334 13.6198 10.1133 14.4998 10.8867 14.9998C10.4133 14.9998 9.97334 14.8665 9.58667 14.6665V14.6865C9.58667 16.0732 10.5733 17.2332 11.88 17.4932C11.4605 17.608 11.0201 17.624 10.5933 17.5398C10.7744 18.1082 11.129 18.6054 11.6074 18.9618C12.0857 19.3181 12.6636 19.5156 13.26 19.5265C12.2491 20.3268 10.996 20.7594 9.70667 20.7532C9.48001 20.7532 9.25334 20.7398 9.02667 20.7132C10.2933 21.5265 11.8 21.9998 13.4133 21.9998C18.6667 21.9998 21.5533 17.6398 21.5533 13.8598C21.5533 13.7332 21.5533 13.6132 21.5467 13.4865C22.1067 13.0865 22.5867 12.5798 22.9733 11.9998Z" fill="#E76F51"/>
</svg>
