<svg width="40" height="40" viewBox="0 0 40 40" fill="none" xmlns="http://www.w3.org/2000/svg">
<g clip-path="url(#clip0_94_429)">
<path fill-rule="evenodd" clip-rule="evenodd" d="M9.74315 9.9059C9.74315 7.91281 10.2985 6.6015 11.1149 5.78227C11.9314 4.96579 13.2455 4.41048 15.2386 4.41048C17.2289 4.41048 18.5402 4.96579 19.3594 5.78502C20.1759 6.6015 20.7312 7.91281 20.7312 9.9059C20.7312 11.8962 20.1759 13.2103 19.3567 14.0295C18.5402 14.846 17.2289 15.3986 15.2358 15.3986C13.2455 15.3986 11.9314 14.846 11.1122 14.0268C10.2985 13.2103 9.74315 11.8962 9.74315 9.90315M15.2358 0.974121C12.6132 0.974121 10.3232 1.71637 8.68475 3.35483C7.04904 4.98779 6.30679 7.28052 6.30679 9.9059C6.30679 12.5285 7.04904 14.8213 8.68475 16.457C10.3205 18.0927 12.6132 18.8349 15.2358 18.8349C17.8612 18.8349 20.1539 18.0927 21.7896 16.457C23.4226 14.8213 24.1676 12.5285 24.1676 9.9059C24.1676 7.28052 23.4253 4.98779 21.7896 3.35483C20.1539 1.72187 17.8557 0.974121 15.2358 0.974121ZM5.13568 26.9447C8.62707 24.6148 12.8183 23.5675 16.9952 23.9812C17.22 24.0029 17.4468 23.9801 17.6627 23.9141C17.8786 23.8481 18.0794 23.7402 18.2536 23.5966C18.4278 23.453 18.5721 23.2765 18.6781 23.0772C18.7841 22.8779 18.8498 22.6596 18.8715 22.4349C18.8931 22.2101 18.8703 21.9833 18.8043 21.7674C18.7384 21.5515 18.6305 21.3507 18.4869 21.1765C18.3433 21.0022 18.1668 20.858 17.9675 20.752C17.7681 20.646 17.5499 20.5803 17.3251 20.5586C12.3608 20.0691 7.38021 21.3145 3.23056 24.0829C2.04845 24.8692 1.25122 25.9193 0.92133 27.1262C0.594189 28.3248 0.767381 29.5371 1.26771 30.579C2.25739 32.6463 4.54463 34.1143 7.27447 34.1143H14.6283C15.084 34.1143 15.521 33.9333 15.8432 33.6111C16.1654 33.2889 16.3464 32.8519 16.3464 32.3962C16.3464 31.9405 16.1654 31.5035 15.8432 31.1812C15.521 30.859 15.084 30.678 14.6283 30.678H7.27722C5.76797 30.678 4.74531 29.8808 4.36868 29.0918C4.19852 28.7664 4.15259 28.3902 4.23948 28.0334C4.32195 27.731 4.55012 27.3351 5.13568 26.9447ZM31.4252 20.1078C30.1715 19.9747 28.9072 19.9747 27.6534 20.1078C26.0865 20.2727 25.0143 21.6143 24.9676 23.1043L24.9126 25.1111C24.2418 25.1221 23.5646 25.1395 22.881 25.1633C21.3938 25.2101 20.0495 26.285 19.8845 27.8492C19.7526 29.1165 19.7526 30.3508 19.8845 31.6209C20.0495 33.1879 21.3938 34.2601 22.881 34.3068L24.9153 34.3618C24.9282 35.0252 24.9456 35.6923 24.9676 36.3631C25.0143 37.8531 26.0892 39.1947 27.6534 39.3596C28.9208 39.4943 30.1551 39.4943 31.4252 39.3596C32.9922 39.1947 34.0643 37.8531 34.111 36.3631L34.166 34.359C34.8203 34.3444 35.4801 34.326 36.1454 34.304C37.6354 34.26 38.9769 33.1852 39.1419 31.6209C39.2766 30.3508 39.2766 29.1193 39.1419 27.8492C38.9769 26.2822 37.6354 25.2101 36.1454 25.1633L34.166 25.1083L34.111 23.1015C34.0643 21.617 32.9894 20.2727 31.4252 20.1078Z" fill="#2D6A4F"/>
</g>
<defs>
<clipPath id="clip0_94_429">
<rect width="38.4872" height="38.4872" fill="white" transform="translate(0.756348 0.974121)"/>
</clipPath>
</defs>
</svg>
