<svg width="38" height="38" viewBox="0 0 38 38" fill="none" xmlns="http://www.w3.org/2000/svg">
<path d="M18.905 4.75C17.2409 4.77209 15.6526 5.44944 14.4847 6.6351C13.3169 7.82076 12.6636 9.41909 12.6666 11.0833C12.5716 13.68 12.3658 16.5775 11.1308 18.3508C15.3741 20.9317 19 20.5833 19 20.5833C19 20.5833 22.6258 20.9317 26.8691 18.3508C25.5233 16.1817 25.2383 13.5217 25.3333 11.0833C25.3333 7.58417 22.4991 4.75 19 4.75H18.905ZM14.0283 21.09C9.49998 22.0558 6.33331 24.3042 6.33331 26.9167V33.25H19L14.25 26.9167H10.2916M19 33.25L21.8183 21.8658C21.8183 21.8658 20.5833 22.1667 19 22.1667C17.4166 22.1667 16.1816 21.8658 16.1816 21.8658M19 33.25H31.6666V26.9167C31.6666 24.3042 28.5 22.0558 23.9716 21.09L27.7083 26.9167H23.75L19 33.25Z" fill="#E76F51"/>
</svg>
