<svg width="44" height="44" viewBox="0 0 44 44" fill="none" xmlns="http://www.w3.org/2000/svg">
<path d="M7.69228 38.3141H24.8973C25.9293 38.3141 26.949 38.0908 27.8866 37.6595C28.8241 37.2282 29.6573 36.5992 30.3288 35.8156L39.4536 25.1707C39.6446 24.9482 39.7781 24.6821 39.8421 24.3959C39.9061 24.1097 39.8987 23.8121 39.8206 23.5294C39.7425 23.2467 39.5961 22.9875 39.3942 22.7747C39.1924 22.5619 38.9413 22.4021 38.6631 22.3092L35.1434 21.136C34.2928 20.859 33.3869 20.7962 32.5062 20.9531C31.6255 21.11 30.7971 21.4818 30.0945 22.0355L24.3983 26.5908L23.2948 24.382C22.7037 23.1914 21.7909 22.1901 20.6599 21.4915C19.529 20.793 18.225 20.4251 16.8957 20.4295H7.69228C5.71961 20.4295 4.11536 22.0338 4.11536 24.0064V34.7372C4.11536 36.7099 5.71961 38.3141 7.69228 38.3141ZM7.69228 24.0064H16.8957C18.2603 24.0064 19.4854 24.763 20.0953 25.9827L20.8947 27.5834H13.0577V31.1603H23.8135C24.0886 31.1564 24.3591 31.0891 24.604 30.9635L24.6093 30.9618L24.6165 30.9582H24.6219L24.6254 30.9564H24.6326L24.6344 30.9546C24.654 30.96 24.6397 30.9528 24.6397 30.9528C24.6612 30.9528 24.6433 30.951 24.6433 30.951H24.6451L24.6487 30.9492L24.654 30.9475L24.6576 30.9457L24.6612 30.9439L24.6666 30.9421L24.6701 30.9403L24.6737 30.9385L24.6791 30.9349L24.6827 30.9331L24.6862 30.9314L24.6916 30.9296L24.6952 30.9278H24.697L24.7005 30.926L24.7059 30.9242L24.7095 30.9224C24.7292 30.9206 24.7149 30.9206 24.7149 30.9206L24.7184 30.9188C24.7871 30.8768 24.8528 30.8302 24.9152 30.7793L32.3301 24.847C32.7969 24.475 33.4443 24.3588 34.0113 24.5483L35.0075 24.881L27.6157 33.5067C27.2757 33.8927 26.8574 34.202 26.3888 34.4142C25.9201 34.6263 25.4117 34.7364 24.8973 34.7372H7.69228V24.0064ZM25.1495 4.9164C24.325 5.82136 20.2115 10.5161 20.2115 14.1699C20.2115 17.6216 23.0194 20.4295 26.4711 20.4295C29.9229 20.4295 32.7307 17.6216 32.7307 14.1699C32.7307 10.5161 28.6173 5.82136 27.7928 4.9164C27.115 4.1724 25.8273 4.1724 25.1495 4.9164ZM29.1538 14.1699C29.1538 15.649 27.9502 16.8526 26.4711 16.8526C24.9921 16.8526 23.7884 15.649 23.7884 14.1699C23.7884 12.9037 25.1083 10.711 26.4711 8.92255C27.8339 10.711 29.1538 12.9037 29.1538 14.1699Z" fill="#2D6A4F"/>
</svg>
