<svg width="44" height="44" viewBox="0 0 44 44" fill="none" xmlns="http://www.w3.org/2000/svg">
<path d="M20.2115 11.4871H25.5769L31.461 5.58518C31.6272 5.41755 31.825 5.2845 32.043 5.1937C32.2609 5.1029 32.4947 5.05615 32.7308 5.05615C32.9669 5.05615 33.2006 5.1029 33.4186 5.1937C33.6365 5.2845 33.8343 5.41755 34.0006 5.58518L38.6148 10.2173C38.9479 10.5524 39.1349 11.0057 39.1349 11.4782C39.1349 11.9506 38.9479 12.4039 38.6148 12.739L34.5192 16.8525H20.2115V20.4294C20.2115 20.9037 20.0231 21.3586 19.6877 21.694C19.3523 22.0294 18.8974 22.2179 18.4231 22.2179C17.9487 22.2179 17.4938 22.0294 17.1584 21.694C16.823 21.3586 16.6346 20.9037 16.6346 20.4294V15.064C16.6346 14.1154 17.0115 13.2056 17.6823 12.5348C18.3531 11.864 19.2629 11.4871 20.2115 11.4871ZM9.48076 20.4294V27.5833L5.38518 31.6788C5.05208 32.0139 4.86511 32.4672 4.86511 32.9397C4.86511 33.4122 5.05208 33.8655 5.38518 34.2006L9.99941 38.8327C10.1657 39.0003 10.3635 39.1334 10.5814 39.2242C10.7994 39.3149 11.0331 39.3617 11.2692 39.3617C11.5053 39.3617 11.7391 39.3149 11.957 39.2242C12.175 39.1334 12.3728 39.0003 12.539 38.8327L20.2115 31.1602H27.3654C27.8397 31.1602 28.2946 30.9717 28.63 30.6363C28.9654 30.3009 29.1538 29.846 29.1538 29.3717V27.5833H30.9423C31.4166 27.5833 31.8715 27.3948 32.2069 27.0594C32.5423 26.724 32.7308 26.2691 32.7308 25.7948V24.0063H34.5192C34.9935 24.0063 35.4485 23.8179 35.7839 23.4825C36.1193 23.1471 36.3077 22.6922 36.3077 22.2179V20.4294H23.7885V22.2179C23.7885 23.1665 23.4116 24.0763 22.7408 24.7471C22.07 25.4179 21.1602 25.7948 20.2115 25.7948H16.6346C15.6859 25.7948 14.7761 25.4179 14.1053 24.7471C13.4345 24.0763 13.0577 23.1665 13.0577 22.2179V16.8525L9.48076 20.4294Z" fill="#2D6A4F"/>
</svg>
